<?xml version="1.0" encoding="UTF-8" standalone="no"?>
<svg
   width="777"
   height="667"
   overflow="hidden"
   version="1.1"
   id="svg15"
   sodipodi:docname="STEAMHeadOnly-2026.05.25.svg"
   inkscape:version="1.4.2 (f4327f4, 2025-05-13)"
   xmlns:inkscape="http://www.inkscape.org/namespaces/inkscape"
   xmlns:sodipodi="http://sodipodi.sourceforge.net/DTD/sodipodi-0.dtd"
   xmlns="http://www.w3.org/2000/svg"
   xmlns:svg="http://www.w3.org/2000/svg">
  <sodipodi:namedview
     id="namedview15"
     pagecolor="#ffffff"
     bordercolor="#000000"
     borderopacity="0.25"
     inkscape:showpageshadow="2"
     inkscape:pageopacity="0.0"
     inkscape:pagecheckerboard="0"
     inkscape:deskcolor="#d1d1d1"
     inkscape:zoom="1.2098951"
     inkscape:cx="388.8767"
     inkscape:cy="333.5"
     inkscape:window-width="1920"
     inkscape:window-height="1009"
     inkscape:window-x="1042"
     inkscape:window-y="591"
     inkscape:window-maximized="1"
     inkscape:current-layer="g15" />
  <defs
     id="defs7">
    <clipPath
       id="clip0">
      <rect
         x="248"
         y="33"
         width="777"
         height="667"
         id="rect1" />
    </clipPath>
    <clipPath
       id="clip1">
      <rect
         x="256"
         y="33"
         width="768"
         height="653"
         id="rect2" />
    </clipPath>
    <clipPath
       id="clip2">
      <rect
         x="256"
         y="33"
         width="768"
         height="653"
         id="rect3" />
    </clipPath>
    <clipPath
       id="clip3">
      <rect
         x="256"
         y="33"
         width="768"
         height="653"
         id="rect4" />
    </clipPath>
    <linearGradient
       x1="0"
       y1="326.189"
       x2="386.875"
       y2="326.189"
       gradientUnits="userSpaceOnUse"
       spreadMethod="pad"
       id="fill4">
      <stop
         offset="0"
         stop-color="#FFFFFF"
         id="stop4" />
      <stop
         offset="1"
         stop-color="#020246"
         id="stop5" />
    </linearGradient>
    <radialGradient
       cx="0.434769"
       cy="0.423935"
       r="625.296"
       gradientUnits="userSpaceOnUse"
       spreadMethod="pad"
       id="fill5"
       gradientTransform="matrix(1.22729,0.521088,-0.521088,1.22729,260.267,32.9191)">
      <stop
         offset="0"
         stop-color="#FFFFFF"
         id="stop6" />
      <stop
         offset="1"
         stop-color="#020246"
         id="stop7" />
    </radialGradient>
  </defs>
  <g
     clip-path="url(#clip0)"
     transform="translate(-248 -33)"
     id="g15">
    <g
       clip-path="url(#clip1)"
       id="g12"
       transform="translate(-4)">
      <g
         clip-path="url(#clip2)"
         id="g11">
        <g
           clip-path="url(#clip3)"
           id="g10">
          <g
             id="g8">
            <path
               d="M 0,652.377 V 0 h 508.247 v 652.377 z"
               stroke="#181512"
               stroke-width="1.0601"
               fill="#020246"
               fill-rule="evenodd"
               transform="matrix(1.58191,0,0,1,256,33.1007)"
               id="path7" />
            <path
               d="M 0,652.377 V 0 h 386.875 v 652.377 z"
               stroke="#181512"
               stroke-width="1.0601"
               fill="url(#fill4)"
               fill-rule="evenodd"
               transform="matrix(1.58191,0,0,1,448,33.1007)"
               id="path8"
               style="fill:url(#fill4)" />
          </g>
          <path
             d=""
             stroke="#ffffff"
             stroke-width="1.33348"
             fill="none"
             id="path9" />
          <path
             d="m 970.169,210.898 c -3.806,23.152 -12.353,45.388 15.498,70.683 5.177,4.702 11.132,8.761 16.973,12.948 -5.823,-26.842 -15.251,-52.339 -27.752,-75.966 z M 863.34,612.062 c 13.675,-25.957 19.101,-55.848 10.189,-83.729 -12.306,-38.491 -12.434,-47.106 -6.308,-87.266 12,-78.666 -57.221,-64.349 -60.189,-130.51 -1.793,-39.967 12.571,-60.404 -32.399,-84.27 -70.441,-37.384 -27.942,-75.94 -58.27,-107.23 -8.482,-8.751 -15.611,-14.278 -24.54,-18.42 -8.22,14.122 -21.864,38.009 -30.763,55.949 -13.171,26.553 -30.58,69.572 -30.58,69.572 0,0 -4.969,34.6 -5.019,44.967 0,0 -42.357,65.218 -59.738,91.052 -3.394,5.042 26.528,18.073 42.83,26.953 l -16.536,36.128 c 10.318,7.999 21.903,14.627 21.903,14.627 -5.316,0.85 -4.34,4.032 -10.087,9.418 -0.584,0.547 -1.717,6.206 0.239,6.419 0.088,2.879 0.93,4.008 3.124,5.599 l 14.788,7.856 c 9.034,16.746 -3.278,21.666 -4.776,38.736 0.324,6.209 1.948,15.184 6.964,16.668 42.396,12.552 128.659,-9.186 137.226,-8.414 0,0 42.905,77.748 63.606,116.786 13.314,-6.302 26.112,-13.284 38.336,-20.891 z m -49.86,26.12 c -16.039,-25.72 -68.012,-100.496 -68.012,-100.496 -41.183,4.597 -118.063,12.045 -133.829,-6.167 -3.899,-4.502 -5.998,-10.466 -8.428,-17.722 0.886,-9.738 0.93,-15.611 4.164,-24.726 1.302,-3.666 5.372,-9.308 3.75,-12.869 l -14.882,-9.412 c -13.351,-9.365 -0.072,-23.505 1.374,-25.756 2.887,1.716 -21.178,-13.717 -21.178,-13.717 l 14.144,-32.378 c 0,0 -43.539,-17.184 -44.175,-29.317 l 70.377,-98.597 1.295,-44.958 c 0,0 15.133,-44.238 27.161,-71.56 10.394,-23.608 29.344,-59.285 29.344,-59.285 l 0.348,3.5333 3.162,-11.8346 c 20.417,5.4346 41.19,6.76 55.886,21.9223 29.408,30.342 -7.322,74.892 30.704,101.523 17.61,12.333 43.295,14.704 55.632,35.499 23.811,40.132 -22.449,72.35 21.363,112.144 14.435,13.11 34.907,21.205 42.135,41.074 13.605,37.4 -16.346,69.118 -4.284,111.674 5.924,20.902 19.656,37.34 17.008,60.666 -1.118,9.848 -3.283,18.411 -6.364,26.243 5.836,-4.399 11.506,-8.951 17.002,-13.652 13.751,-26.001 19.228,-55.972 10.294,-83.924 -12.307,-38.491 -12.435,-47.105 -6.308,-87.265 12,-78.667 -57.222,-64.35 -60.19,-130.511 C 849.18,238.347 863.544,217.91 818.575,194.045 748.133,156.661 790.632,118.105 760.304,86.814 747.156,73.2487 737.143,67.3753 718.875,62.5127 l 0.914,-3.4214 -10.052,-0.1653 C 544.195,58.9445 409.983,192.982 409.96,358.311 c -0.023,165.331 134.155,299.338 299.697,299.32 31.279,-0.003 61.438,-4.79 89.786,-13.669 z M 936.809,553.59 c 7.672,-8.889 14.771,-18.153 21.366,-27.903 7.192,-10.846 12.129,-19.164 16.662,-27.726 -0.68,-5.751 -1.894,-11.468 -3.696,-17.103 -12.306,-38.492 -12.433,-47.105 -6.308,-87.265 12.002,-78.667 -57.22,-64.35 -60.188,-130.511 -1.793,-39.967 12.571,-60.404 -32.4,-84.271 C 811.56,146.606 834.696,113.53 822.876,84.9807 806.517,77.3633 789.396,70.7713 771.625,65.3113 l -4.098,-0.8293 c 3.709,2.1747 7.196,4.8173 10.396,8.1187 29.408,30.3423 -7.323,74.8923 30.704,101.5243 17.609,12.332 43.294,14.704 55.632,35.497 23.81,40.132 -22.45,72.351 21.362,112.144 14.435,13.111 34.907,21.205 42.135,41.076 13.605,37.399 -16.345,69.115 -4.284,111.672 5.924,20.903 19.655,37.34 17.008,60.667 -0.619,5.446 -1.556,10.5 -3.671,18.409 z M 844.207,95.7247 c -0.227,22.8253 -5.703,46.5023 18.092,63.1663 17.609,12.334 43.294,14.704 55.63,35.498 23.812,40.132 -22.448,72.352 21.363,112.144 14.436,13.112 34.908,21.205 42.136,41.076 13.605,37.4 -16.345,69.116 -4.285,111.673 1.882,6.64 4.553,12.831 7.234,18.933 16.113,-36.729 25.053,-77.308 25.053,-119.97 0.01,-11.187 -0.61,-22.231 -1.8,-33.099 -14.257,-32.977 -54.367,-36.999 -56.611,-87.017 -1.116,-24.864 4.02,-42.17 -2.766,-57.444 -5.417,-6.599 -11.125,-13.014 -17.11,-19.23 -3.554,-2.51 -7.696,-5.033 -12.524,-7.596 -22.832,-12.117 -33.8,-24.357 -39.227,-36.433 -11.193,-7.8 -22.94,-15.049 -35.185,-21.7013 z M 646.476,46.782 c -204.225,0.0227 -360.588,141.02 -360.611,312.759 -0.023,171.737 156.302,312.7 360.527,312.677 13.361,-10e-4 26.549,-0.605 39.529,-1.783 C 523.268,658.361 388.939,523.241 388.961,358.314 388.984,198.218 515.593,66.182 671.788,47.5073 663.427,47.0273 654.987,46.782 646.476,46.782 Z m 10e-4,-13.6813 C 856.159,33.078 1028.02,178.217 1028,359.458 1027.98,540.701 856.071,685.877 646.389,685.899 436.708,685.922 259.976,540.785 260,359.543 260.023,178.302 436.796,33.1247 646.477,33.1007 Z m 4.831,266.8613 c -4.319,4.793 -7.768,-4.731 -9.732,-9.719 -1.581,-4.017 -1.808,-7.346 -0.625,-10.99 l -5.267,-1.478 5.972,-12.661 54.216,23.315 -5.852,4.566 -29.919,-8.378 c -4.156,7.733 -3.148,9.08 -8.793,15.345 z m -17.649,-55.473 32.405,-13.503 46.537,36.723 -7.854,5.64 -42.966,-25.127 -28.657,5.172 z m 324.516,281.198 c -6.56,9.671 -13.66,18.782 -20.488,24.748 7.736,-8.52 15.01,-17.365 21.697,-26.544 z"
             fill="url(#fill5)"
             fill-rule="evenodd"
             id="path10"
             style="fill:url(#fill5)" />
        </g>
      </g>
    </g>
    <text
       fill="#a0a0b9"
       font-family="Jost, Jost_MSFontService, sans-serif"
       font-weight="400"
       font-size="29px"
       id="text13"
       x="390.49301"
       y="637" />
    <text
       fill="#a0a0b9"
       font-family="Jost, Jost_MSFontService, sans-serif"
       font-weight="400"
       font-size="29px"
       id="text15"
       x="423.99301"
       y="672" />
  </g>
</svg>
